<svg width="221" height="30" viewBox="0 0 221 30" fill="none" xmlns="http://www.w3.org/2000/svg">
<path d="M220.117 9.04447V14.3139C219.593 14.209 219.069 14.1566 218.545 14.1566C217.05 14.1566 215.844 14.5891 214.927 15.4543C214.009 16.2932 213.55 17.6826 213.55 19.6226V28.4704H208.32V9.12312H213.393V11.9938C214.337 9.97513 216.172 8.96582 218.898 8.96582C219.187 8.96582 219.593 8.99204 220.117 9.04447Z" fill="#2A4B4F"/>
<path d="M190.402 16.5947H199.053C199.001 15.5199 198.608 14.6154 197.874 13.8814C197.166 13.1473 196.117 12.7803 194.728 12.7803C193.469 12.7803 192.447 13.1735 191.661 13.96C190.874 14.7465 190.455 15.6247 190.402 16.5947ZM199.565 21.6282L203.93 22.9259C203.405 24.7085 202.37 26.1766 200.823 27.3301C199.303 28.4836 197.402 29.0604 195.121 29.0604C192.342 29.0604 189.983 28.1297 188.043 26.2684C186.103 24.3808 185.133 21.8641 185.133 18.7182C185.133 15.7296 186.077 13.2915 187.964 11.404C189.852 9.49021 192.08 8.53333 194.649 8.53333C197.638 8.53333 199.971 9.42467 201.649 11.2073C203.353 12.99 204.205 15.4412 204.205 18.5609C204.205 18.7706 204.192 19.0066 204.166 19.2687C204.166 19.5309 204.166 19.7406 204.166 19.8979L204.126 20.1732H190.284C190.337 21.4315 190.835 22.4802 191.779 23.3191C192.722 24.158 193.85 24.5775 195.16 24.5775C197.389 24.5775 198.857 23.5944 199.565 21.6282Z" fill="#2A4B4F"/>
<path d="M178.441 3.34253V9.12314H182.334V13.7633H178.441V21.8641C178.441 22.6768 178.624 23.2535 178.991 23.5943C179.358 23.9351 179.935 24.1055 180.721 24.1055C181.429 24.1055 181.967 24.0531 182.334 23.9482V28.2738C181.573 28.5884 180.59 28.7457 179.384 28.7457C177.497 28.7457 176.002 28.2214 174.901 27.1728C173.8 26.0979 173.25 24.6298 173.25 22.7685V13.7633H169.75V9.12314H170.733C171.703 9.12314 172.437 8.84787 172.935 8.29734C173.46 7.72059 173.722 6.97343 173.722 6.05588V3.34253H178.441Z" fill="#2A4B4F"/>
<path d="M163.773 3.34253V9.12314H167.666V13.7633H163.773V21.8641C163.773 22.6768 163.956 23.2535 164.323 23.5943C164.69 23.9351 165.267 24.1055 166.053 24.1055C166.761 24.1055 167.299 24.0531 167.666 23.9482V28.2738C166.905 28.5884 165.922 28.7457 164.716 28.7457C162.829 28.7457 161.335 28.2214 160.233 27.1728C159.132 26.0979 158.582 24.6298 158.582 22.7685V13.7633H155.082V9.12314H156.065C157.035 9.12314 157.769 8.84787 158.267 8.29734C158.792 7.72059 159.054 6.97343 159.054 6.05588V3.34253H163.773Z" fill="#2A4B4F"/>
<path d="M135.062 23.2011C135.062 21.5495 135.6 20.2256 136.675 19.2294C137.75 18.2332 139.139 17.604 140.843 17.3419L145.601 16.634C146.571 16.503 147.056 16.0442 147.056 15.2577C147.056 14.5237 146.768 13.9207 146.191 13.4488C145.641 12.9769 144.841 12.741 143.792 12.741C142.691 12.741 141.813 13.0425 141.158 13.6454C140.529 14.2484 140.175 14.9955 140.096 15.8869L135.456 14.9038C135.639 13.226 136.465 11.7448 137.933 10.4602C139.401 9.17561 141.341 8.53333 143.753 8.53333C146.637 8.53333 148.76 9.22805 150.124 10.6175C151.487 11.9807 152.168 13.7372 152.168 15.8869V25.4033C152.168 26.5568 152.247 27.5792 152.404 28.4705H147.607C147.476 27.8938 147.41 27.1204 147.41 26.1504C146.178 28.0642 144.277 29.021 141.708 29.021C139.716 29.021 138.104 28.4443 136.871 27.2908C135.665 26.1373 135.062 24.7741 135.062 23.2011ZM142.809 25.128C144.041 25.128 145.051 24.7872 145.837 24.1056C146.65 23.3977 147.056 22.2442 147.056 20.6451V19.7799L142.691 20.4485C141.092 20.6844 140.293 21.4971 140.293 22.8865C140.293 23.5157 140.515 24.0531 140.961 24.4988C141.407 24.9183 142.023 25.128 142.809 25.128Z" fill="#2A4B4F"/>
<path d="M106.636 28.4705H101.406V9.12317H106.4V11.4826C106.898 10.5913 107.685 9.88343 108.76 9.35911C109.835 8.83479 110.936 8.57263 112.063 8.57263C114.868 8.57263 116.782 9.64748 117.804 11.7972C119.194 9.64748 121.239 8.57263 123.939 8.57263C125.905 8.57263 127.557 9.1887 128.894 10.4209C130.257 11.653 130.938 13.4881 130.938 15.9262V28.4705H125.866V16.9879C125.866 15.8869 125.577 15.0086 125.001 14.3532C124.45 13.6716 123.598 13.3308 122.445 13.3308C121.37 13.3308 120.505 13.6978 119.849 14.4319C119.194 15.1659 118.866 16.0704 118.866 17.1452V28.4705H113.675V16.9879C113.675 15.8869 113.387 15.0086 112.81 14.3532C112.233 13.6716 111.381 13.3308 110.254 13.3308C109.153 13.3308 108.275 13.6978 107.619 14.4319C106.964 15.1397 106.636 16.0442 106.636 17.1452V28.4705Z" fill="#2A4B4F"/>
<path d="M95.7338 0V24.9706C95.7338 26.2552 95.7862 27.4218 95.8911 28.4705H90.897C90.7659 27.8151 90.7003 27.0679 90.7003 26.229C90.2547 27.0417 89.5468 27.6971 88.5769 28.1952C87.6331 28.6933 86.532 28.9424 85.2737 28.9424C82.521 28.9424 80.2533 27.9855 78.4706 26.0717C76.7142 24.1317 75.8359 21.6937 75.8359 18.7575C75.8359 15.8999 76.7011 13.5012 78.4313 11.5612C80.1878 9.62123 82.4161 8.65125 85.1164 8.65125C87.8952 8.65125 89.7172 9.45083 90.5824 11.05V0H95.7338ZM81.1053 18.7575C81.1053 20.4615 81.551 21.8116 82.4423 22.8078C83.3337 23.7778 84.4872 24.2628 85.9028 24.2628C87.2923 24.2628 88.4327 23.7647 89.324 22.7685C90.2154 21.7723 90.661 20.4222 90.661 18.7182C90.661 17.0403 90.2154 15.7295 89.324 14.7858C88.4327 13.8158 87.2923 13.3308 85.9028 13.3308C84.5134 13.3308 83.3599 13.8158 82.4423 14.7858C81.551 15.7558 81.1053 17.0797 81.1053 18.7575Z" fill="#454545"/>
<path d="M59.5582 17.3418V28.4704H54.3281V9.12312H59.4009V11.5219C59.9514 10.5781 60.7379 9.85716 61.7603 9.35906C62.7828 8.86096 63.8576 8.61191 64.9849 8.61191C67.2657 8.61191 68.9959 9.33285 70.1756 10.7747C71.3816 12.1904 71.9845 14.0255 71.9845 16.2801V28.4704H66.7545V17.1845C66.7545 16.031 66.453 15.1003 65.85 14.3925C65.2733 13.6847 64.3819 13.3308 63.176 13.3308C62.0749 13.3308 61.1967 13.7109 60.5413 14.4712C59.8859 15.2314 59.5582 16.1883 59.5582 17.3418Z" fill="#454545"/>
<path d="M36.4061 16.5947H45.0574C45.0049 15.5199 44.6117 14.6154 43.8776 13.8814C43.1698 13.1473 42.1212 12.7803 40.7317 12.7803C39.4734 12.7803 38.451 13.1735 37.6645 13.96C36.878 14.7465 36.4585 15.6247 36.4061 16.5947ZM45.5686 21.6282L49.9335 22.9259C49.4092 24.7085 48.3737 26.1766 46.8269 27.3301C45.3064 28.4836 43.4058 29.0604 41.125 29.0604C38.3461 29.0604 35.9867 28.1297 34.0467 26.2684C32.1067 24.3808 31.1367 21.8641 31.1367 18.7182C31.1367 15.7296 32.0805 13.2915 33.968 11.404C35.8556 9.49021 38.0839 8.53333 40.6531 8.53333C43.6417 8.53333 45.9749 9.42467 47.6527 11.2073C49.3568 12.99 50.2088 15.4412 50.2088 18.5609C50.2088 18.7706 50.1957 19.0066 50.1695 19.2687C50.1695 19.5309 50.1695 19.7406 50.1695 19.8979L50.1301 20.1732H36.2881C36.3406 21.4315 36.8387 22.4802 37.7824 23.3191C38.7262 24.158 39.8535 24.5775 41.1643 24.5775C43.3926 24.5775 44.8607 23.5944 45.5686 21.6282Z" fill="#454545"/>
<path d="M29.1057 9.04447V14.3139C28.5814 14.209 28.0571 14.1566 27.5328 14.1566C26.0385 14.1566 24.8326 14.5891 23.915 15.4543C22.9974 16.2932 22.5387 17.6826 22.5387 19.6226V28.4704H17.3086V9.12312H22.3814V11.9938C23.3251 9.97513 25.1603 8.96582 27.8867 8.96582C28.1751 8.96582 28.5814 8.99204 29.1057 9.04447Z" fill="#454545"/>
<path d="M9.24135 3.34253V9.12314H13.1344V13.7633H9.24135V21.8641C9.24135 22.6768 9.42486 23.2535 9.79188 23.5943C10.1589 23.9351 10.7357 24.1055 11.5221 24.1055C12.23 24.1055 12.7674 24.0531 13.1344 23.9482V28.2738C12.3742 28.5884 11.3911 28.7457 10.1851 28.7457C8.29758 28.7457 6.80327 28.2214 5.70221 27.1728C4.60114 26.0979 4.0506 24.6298 4.0506 22.7685V13.7633H0.550781V9.12314H1.53388C2.50387 9.12314 3.23791 8.84787 3.73601 8.29734C4.26033 7.72059 4.52249 6.97343 4.52249 6.05588V3.34253H9.24135Z" fill="#454545"/>
</svg>
