<svg width="139" height="19" viewBox="0 0 139 19" fill="none" xmlns="http://www.w3.org/2000/svg">
<path d="M138.56 5.96936V9.28155C138.23 9.21563 137.901 9.18268 137.571 9.18268C136.632 9.18268 135.874 9.45457 135.297 9.99837C134.72 10.5257 134.432 11.399 134.432 12.6185V18.18H131.145V6.01879H134.333V7.8232C134.926 6.55435 136.08 5.91992 137.794 5.91992C137.975 5.91992 138.23 5.9364 138.56 5.96936Z" fill="white"/>
<path d="M119.883 10.7156H125.32C125.287 10.04 125.04 9.47146 124.579 9.01006C124.134 8.54867 123.475 8.31797 122.601 8.31797C121.811 8.31797 121.168 8.56514 120.673 9.0595C120.179 9.55386 119.915 10.1059 119.883 10.7156ZM125.642 13.8795L128.385 14.6952C128.056 15.8157 127.405 16.7385 126.433 17.4636C125.477 18.1886 124.282 18.5512 122.849 18.5512C121.102 18.5512 119.619 17.9662 118.399 16.7962C117.18 15.6097 116.57 14.0278 116.57 12.0504C116.57 10.1718 117.164 8.6393 118.35 7.45284C119.536 6.24991 120.937 5.64844 122.552 5.64844C124.431 5.64844 125.897 6.20871 126.952 7.32925C128.023 8.44979 128.558 9.99054 128.558 11.9515C128.558 12.0833 128.55 12.2316 128.534 12.3964C128.534 12.5612 128.534 12.693 128.534 12.7919L128.509 12.9649H119.808C119.841 13.7559 120.154 14.415 120.748 14.9423C121.341 15.4697 122.049 15.7333 122.873 15.7333C124.274 15.7333 125.197 15.1154 125.642 13.8795Z" fill="white"/>
<path d="M112.363 2.38672V6.02024H114.81V8.93695H112.363V14.0288C112.363 14.5397 112.478 14.9022 112.709 15.1164C112.94 15.3306 113.302 15.4377 113.797 15.4377C114.242 15.4377 114.579 15.4048 114.81 15.3389V18.0578C114.332 18.2556 113.714 18.3545 112.956 18.3545C111.77 18.3545 110.831 18.0249 110.138 17.3657C109.446 16.6901 109.1 15.7673 109.1 14.5973V8.93695H106.9V6.02024H107.518C108.128 6.02024 108.589 5.84722 108.903 5.50117C109.232 5.13864 109.397 4.669 109.397 4.09225V2.38672H112.363Z" fill="white"/>
<path d="M103.144 2.38696V6.02049H105.591V8.93719H103.144V14.0291C103.144 14.5399 103.26 14.9024 103.49 15.1167C103.721 15.3309 104.084 15.438 104.578 15.438C105.023 15.438 105.361 15.405 105.591 15.3391V18.0581C105.113 18.2558 104.496 18.3547 103.738 18.3547C102.551 18.3547 101.612 18.0251 100.92 17.366C100.228 16.6904 99.8815 15.7676 99.8815 14.5976V8.93719H97.6816V6.02049H98.2996C98.9093 6.02049 99.3707 5.84746 99.6838 5.50141C100.013 5.13888 100.178 4.66925 100.178 4.0925V2.38696H103.144Z" fill="white"/>
<path d="M85.0977 14.8682C85.0977 13.83 85.4355 12.9979 86.1111 12.3717C86.7867 11.7455 87.6601 11.35 88.7312 11.1852L91.722 10.7403C92.3317 10.6579 92.6366 10.3695 92.6366 9.87519C92.6366 9.41379 92.4553 9.03478 92.0928 8.73817C91.7468 8.44156 91.2442 8.29325 90.585 8.29325C89.8929 8.29325 89.3409 8.48275 88.9289 8.86176C88.5334 9.24077 88.311 9.7104 88.2615 10.2707L85.3448 9.65273C85.4602 8.5981 85.9793 7.66706 86.9021 6.85961C87.8249 6.05216 89.0443 5.64844 90.5603 5.64844C92.3729 5.64844 93.7077 6.08512 94.5646 6.95848C95.4215 7.81537 95.8499 8.91943 95.8499 10.2707V16.2524C95.8499 16.9775 95.8994 17.6201 95.9982 18.1804H92.9827C92.9003 17.8179 92.8591 17.3317 92.8591 16.722C92.0846 17.925 90.8899 18.5264 89.275 18.5264C88.0226 18.5264 87.0092 18.1639 86.2347 17.4389C85.4767 16.7138 85.0977 15.8569 85.0977 14.8682ZM89.9671 16.0794C90.7416 16.0794 91.376 15.8651 91.8703 15.4367C92.3812 14.9918 92.6366 14.2667 92.6366 13.2615V12.7177L89.8929 13.1379C88.8877 13.2863 88.3851 13.7971 88.3851 14.6705C88.3851 15.0659 88.5252 15.4037 88.8053 15.6839C89.0855 15.9475 89.4727 16.0794 89.9671 16.0794Z" fill="white"/>
<path d="M67.2289 18.1811H63.9414V6.01988H67.0806V7.50295C67.3937 6.94268 67.888 6.49776 68.5636 6.16819C69.2393 5.83861 69.9314 5.67383 70.6399 5.67383C72.4031 5.67383 73.6061 6.34945 74.2488 7.70069C75.1221 6.34945 76.4074 5.67383 78.1047 5.67383C79.3406 5.67383 80.3788 6.06107 81.2192 6.83557C82.0761 7.61006 82.5045 8.76356 82.5045 10.2961V18.1811H79.3159V10.9634C79.3159 10.2713 79.1346 9.71932 78.7721 9.30735C78.4261 8.87891 77.8905 8.66469 77.1655 8.66469C76.4898 8.66469 75.946 8.89539 75.5341 9.35679C75.1221 9.81819 74.9161 10.3867 74.9161 11.0623V18.1811H71.6534V10.9634C71.6534 10.2713 71.4721 9.71932 71.1096 9.30735C70.7471 8.87891 70.2115 8.66469 69.5029 8.66469C68.8108 8.66469 68.2588 8.89539 67.8468 9.35679C67.4349 9.80171 67.2289 10.3702 67.2289 11.0623V18.1811Z" fill="white"/>
<path d="M60.3764 0.285156V15.981C60.3764 16.7884 60.4093 17.5217 60.4752 18.1809H57.3361C57.2537 17.7689 57.2125 17.2993 57.2125 16.772C56.9323 17.2828 56.4874 17.6948 55.8777 18.0079C55.2845 18.3209 54.5924 18.4775 53.8014 18.4775C52.0712 18.4775 50.6458 17.876 49.5252 16.6731C48.4212 15.4537 47.8691 13.9212 47.8691 12.0756C47.8691 10.2794 48.4129 8.77162 49.5005 7.5522C50.6046 6.33279 52.0053 5.72308 53.7026 5.72308C55.4493 5.72308 56.5945 6.22568 57.1383 7.23087V0.285156H60.3764ZM51.1813 12.0756C51.1813 13.1467 51.4615 13.9953 52.0217 14.6215C52.582 15.2312 53.3071 15.5361 54.1969 15.5361C55.0703 15.5361 55.7871 15.223 56.3474 14.5968C56.9076 13.9706 57.1878 13.122 57.1878 12.0509C57.1878 10.9962 56.9076 10.1723 56.3474 9.57907C55.7871 8.96936 55.0703 8.66451 54.1969 8.66451C53.3235 8.66451 52.5985 8.96936 52.0217 9.57907C51.4615 10.1888 51.1813 11.0209 51.1813 12.0756Z" fill="white"/>
<path d="M37.6371 11.1846V18.1798H34.3496V6.0186H37.5382V7.52639C37.8843 6.93316 38.3786 6.48 39.0213 6.1669C39.6639 5.85381 40.3396 5.69727 41.0481 5.69727C42.4818 5.69727 43.5694 6.15043 44.3109 7.05675C45.0689 7.94659 45.4479 9.10009 45.4479 10.5172V18.1798H42.1605V11.0858C42.1605 10.3607 41.9709 9.77571 41.5919 9.33079C41.2294 8.88587 40.6691 8.66341 39.9111 8.66341C39.219 8.66341 38.667 8.90235 38.255 9.38022C37.8431 9.8581 37.6371 10.4596 37.6371 11.1846Z" fill="white"/>
<path d="M23.0856 10.7156H28.5236C28.4906 10.04 28.2434 9.47146 27.782 9.01006C27.3371 8.54867 26.678 8.31797 25.8046 8.31797C25.0136 8.31797 24.371 8.56514 23.8766 9.0595C23.3822 9.55386 23.1186 10.1059 23.0856 10.7156ZM28.8449 13.8795L31.5886 14.6952C31.259 15.8157 30.6081 16.7385 29.6359 17.4636C28.6801 18.1886 27.4854 18.5512 26.0518 18.5512C24.305 18.5512 22.822 17.9662 21.6026 16.7962C20.3831 15.6097 19.7734 14.0278 19.7734 12.0504C19.7734 10.1718 20.3667 8.6393 21.5531 7.45284C22.7396 6.24991 24.1403 5.64844 25.7552 5.64844C27.6337 5.64844 29.1003 6.20871 30.1549 7.32925C31.226 8.44979 31.7616 9.99054 31.7616 11.9515C31.7616 12.0833 31.7534 12.2316 31.7369 12.3964C31.7369 12.5612 31.7369 12.693 31.7369 12.7919L31.7122 12.9649H23.0115C23.0444 13.7559 23.3575 14.415 23.9508 14.9423C24.544 15.4697 25.2526 15.7333 26.0765 15.7333C27.4772 15.7333 28.4 15.1154 28.8449 13.8795Z" fill="white"/>
<path d="M18.4954 5.96936V9.28155C18.1659 9.21563 17.8363 9.18268 17.5067 9.18268C16.5674 9.18268 15.8094 9.45457 15.2327 9.99837C14.6559 10.5257 14.3676 11.399 14.3676 12.6185V18.18H11.0801V6.01879H14.2687V7.8232C14.8619 6.55435 16.0154 5.91992 17.7292 5.91992C17.9104 5.91992 18.1659 5.9364 18.4954 5.96936Z" fill="white"/>
<path d="M6.00952 2.38477V6.01829H8.45658V8.935H6.00952V14.0269C6.00952 14.5377 6.12487 14.9002 6.35557 15.1145C6.58627 15.3287 6.9488 15.4358 7.44315 15.4358C7.88807 15.4358 8.22589 15.4028 8.45658 15.3369V18.0559C7.97871 18.2536 7.36076 18.3525 6.60275 18.3525C5.41629 18.3525 4.47701 18.0229 3.78491 17.3638C3.09281 16.6882 2.74676 15.7654 2.74676 14.5954V8.935H0.546875V6.01829H1.16482C1.77453 6.01829 2.23593 5.84527 2.54902 5.49922C2.87859 5.13669 3.04338 4.66705 3.04338 4.0903V2.38477H6.00952Z" fill="white"/>
</svg>
