<svg width="152" height="105" viewBox="0 0 152 105" fill="none" xmlns="http://www.w3.org/2000/svg">
<path d="M124.281 105H16.6202C13.219 105 10.6091 101.982 11.1007 98.6163L23.4513 14.0353C23.7511 11.9809 25.5129 10.4583 27.5888 10.4583H96.6996L102.999 2.59776C104.313 0.957764 106.301 0.00331116 108.402 0.00331116L140.398 0C142.947 0 144.904 2.26215 144.536 4.78552L130.714 99.438C130.248 102.632 127.509 105 124.281 105Z" fill="#A6A6A6"/>
<path d="M15.0239 105H124.795C127.507 105 129.606 102.623 129.269 99.9314L119.629 22.842C119.344 20.5578 117.403 18.844 115.101 18.844H4.56671C1.82126 18.844 -0.30313 21.2505 0.037985 23.9745L9.56717 100.183C9.91104 102.935 12.2503 105 15.0239 105Z" fill="#EAEAEA"/>
<path d="M51.2421 54.9789C51.2245 54.9613 51.2074 54.9437 51.1964 54.9343C50.9848 54.7552 50.7682 54.5822 50.5517 54.4086C50.167 54.0989 49.7823 53.7897 49.3982 53.4806C48.9949 53.1565 48.5915 52.832 48.1881 52.5079C48.3132 52.3443 48.4372 52.1855 48.5948 51.9861C48.9767 51.5033 49.3646 51.0272 49.7289 50.5307C50.0821 50.049 50.4304 49.6341 50.593 49.0472C50.8206 48.2261 50.0314 47.4099 49.1999 47.6541C48.1148 47.9731 47.1818 48.9976 46.3927 49.784C46.1574 50.0182 45.9287 50.259 45.6983 50.4971C45.2498 50.1378 44.7962 49.7851 44.3267 49.4561C43.4825 48.8642 42.4497 47.713 41.3388 47.8133C40.6301 47.8772 39.9352 48.3875 39.9721 49.18C40.0333 50.4915 41.3366 51.3656 42.167 52.255C42.5098 52.622 42.8708 52.973 43.2378 53.3186C42.8157 53.8454 42.4035 54.3799 42.0199 54.9316C41.3256 55.9301 40.3766 57.078 40.3391 58.3366C40.3033 59.5556 41.6441 60.1508 42.6333 59.6526C43.2361 59.349 43.6362 58.7549 44.0165 58.216C44.3339 57.7657 44.6485 57.3144 44.9748 56.8702C45.2553 56.4878 45.5292 56.1015 45.8041 55.7152C46.2163 56.1026 46.6291 56.49 47.0419 56.8774C47.4441 57.2554 47.842 57.6395 48.2559 58.0054C48.5375 58.2551 48.8224 58.5334 49.1426 58.7307C49.7306 59.0933 50.377 59.0993 51.0333 58.9808C51.9563 58.8144 52.5669 57.8082 52.5895 56.9364C52.5901 56.9198 52.5906 56.9033 52.5912 56.8862C52.6149 55.9924 52.0186 55.282 51.2421 54.9789Z" fill="#9F9F9F"/>
<path d="M80.6445 53.644C80.6269 53.6259 80.6098 53.6082 80.5987 53.5994C80.3871 53.4198 80.1706 53.2473 79.954 53.0731C79.5693 52.764 79.1847 52.4548 78.8 52.1451C78.3972 51.8211 77.9938 51.4965 77.5904 51.1725C77.7155 51.0088 77.8395 50.8501 77.9971 50.6506C78.379 50.1679 78.767 49.6923 79.1312 49.1952C79.4845 48.7136 79.8328 48.2986 79.9953 47.7123C80.2229 46.8906 79.4338 46.0745 78.6022 46.3192C77.5171 46.6377 76.5842 47.6621 75.795 48.4485C75.5597 48.6833 75.331 48.9235 75.1007 49.1622C74.6521 48.8023 74.1986 48.4496 73.729 48.1206C72.8843 47.5288 71.8521 46.3776 70.7411 46.4779C70.0324 46.5418 69.3375 47.0526 69.3745 47.8445C69.4356 49.1566 70.7389 50.0301 71.5694 50.9195C71.9122 51.2871 72.2731 51.6376 72.6401 51.9837C72.218 52.5099 71.8052 53.045 71.4222 53.5961C70.7279 54.5947 69.7789 55.7425 69.7415 57.0012C69.7056 58.2202 71.0464 58.8153 72.0356 58.3177C72.6385 58.0135 73.0386 57.4195 73.4182 56.8805C73.7362 56.4303 74.0509 55.979 74.3771 55.5348C74.6576 55.1529 74.9315 54.766 75.2065 54.3803C75.6187 54.7677 76.0314 55.1551 76.4442 55.5425C76.8465 55.9205 77.2444 56.3046 77.6577 56.6706C77.9398 56.9196 78.2247 57.1979 78.5449 57.3958C79.1329 57.7578 79.7793 57.7639 80.4356 57.6454C81.3587 57.479 81.9687 56.4727 81.9919 55.6015C81.9924 55.5844 81.993 55.5678 81.9935 55.5508C82.0172 54.6569 81.4209 53.9471 80.6445 53.644Z" fill="#9F9F9F"/>
<path d="M69.3648 64.097C68.3035 63.5923 67.1964 63.1817 66.0711 62.8461C63.9555 62.2151 61.679 61.8222 59.4681 62.0316C57.5817 62.2102 55.6789 62.7568 54.1298 63.8843C53.3197 64.474 52.6177 65.138 52.012 65.9371C51.488 66.6292 50.9953 67.5859 51.1028 68.4726C51.1783 69.0958 51.8241 69.6607 52.4545 69.2485C53.0695 68.8462 53.5402 68.2621 54.0664 67.7507C54.5558 67.2751 55.1041 66.913 55.7175 66.6006C56.3429 66.2815 56.8461 66.0842 57.5961 65.8919C58.4954 65.6627 58.8498 65.6119 59.7017 65.5932C61.4993 65.5552 63.1878 65.9558 64.9232 66.567C65.8115 66.88 66.6822 67.2448 67.5545 67.5986C67.5777 67.6079 67.5909 67.6129 67.6063 67.6195C67.8444 67.722 67.9866 67.7826 68.034 67.8019C68.05 67.8091 68.0604 67.814 68.0792 67.8229C68.2577 67.9116 68.4412 67.9865 68.6302 68.0477C69.0678 68.1998 69.4712 68.2869 69.939 68.3194C70.7535 68.3761 71.3812 67.5986 71.4093 66.8491C71.4578 65.5607 70.4438 64.6106 69.3648 64.097Z" fill="#9F9F9F"/>
<path d="M119.309 11.413C119.254 11.2158 119.154 11.0444 119.009 10.8989C118.864 10.7545 118.693 10.6548 118.495 10.5991C118.128 10.4983 117.614 10.5853 117.361 10.8989C117.287 10.9904 117.215 11.0835 117.145 11.1777C117.104 11.2731 117.064 11.3679 117.024 11.4632C117.002 11.5167 116.973 11.5707 116.956 11.6258C116.897 11.8181 116.899 12.0435 116.877 12.2457C116.853 12.4794 116.824 12.7075 116.831 12.9423C116.84 13.2487 116.833 13.56 116.891 13.862C116.915 13.9926 116.943 14.1161 116.995 14.239C117.067 14.4098 117.181 14.5442 117.304 14.6804C117.518 14.9179 117.924 14.9554 118.192 14.795C118.314 14.7222 118.437 14.6451 118.539 14.5454C118.653 14.4346 118.749 14.2599 118.82 14.1144C118.95 13.8504 119.032 13.5606 119.125 13.2817C119.197 13.0668 119.24 12.853 119.282 12.6298C119.357 12.2397 119.464 11.7988 119.309 11.413Z" fill="white"/>
<path d="M126.45 11.6954C126.338 11.3311 126.024 10.9299 125.62 10.8666C125.424 10.8352 125.274 10.8126 125.084 10.8385C124.789 10.8776 124.594 10.9972 124.362 11.184C124.266 11.2606 124.169 11.3377 124.083 11.4248C123.903 11.6067 123.752 11.8293 123.594 12.0315C123.225 12.506 122.881 12.9904 122.555 13.4946C122.421 13.6996 122.29 13.9057 122.162 14.1135C121.994 14.3852 121.885 14.6976 121.762 14.9908C121.666 15.2206 121.562 15.4421 121.521 15.689C121.481 15.942 121.449 16.1911 121.586 16.4253C121.722 16.6556 121.926 16.7713 122.189 16.7928C122.759 16.8397 123.234 16.2379 123.609 15.8874C123.956 15.5634 124.248 15.1947 124.561 14.8382C124.866 14.491 125.176 14.1493 125.479 13.801C125.983 13.2213 126.71 12.549 126.45 11.6954Z" fill="white"/>
<path d="M127.432 19.5677C127.227 19.387 127.032 19.231 126.763 19.1495C126.554 19.0861 126.337 19.0575 126.118 19.0569C125.781 19.0564 125.449 19.1037 125.12 19.1776C124.874 19.2332 124.63 19.3032 124.391 19.3876C124.21 19.4509 124.022 19.511 123.865 19.6218C123.698 19.7386 123.566 19.8593 123.434 20.008C123.248 20.2158 123.16 20.4792 123.236 20.7553C123.302 20.9961 123.516 21.2452 123.772 21.2921C123.863 21.3086 123.952 21.3295 124.043 21.3439C124.158 21.3621 124.277 21.3808 124.394 21.3852C124.437 21.3869 124.481 21.3813 124.524 21.3769C124.516 21.378 124.507 21.3791 124.499 21.3802C124.524 21.3769 124.549 21.3769 124.574 21.3736C124.576 21.3736 124.578 21.3736 124.579 21.3731C124.945 21.3295 125.314 21.3119 125.683 21.3301C125.879 21.34 126.085 21.3411 126.282 21.3306C126.446 21.3224 126.627 21.2926 126.789 21.254C126.953 21.2144 127.099 21.1179 127.243 21.0342C127.737 20.7481 127.887 19.9684 127.432 19.5677Z" fill="white"/>
<path d="M149.498 77.0885L151.853 77.8522L149.498 78.616C148.538 78.9274 147.786 79.6796 147.474 80.6396L146.71 82.9949L145.947 80.6396C145.636 79.6796 144.883 78.9274 143.923 78.616L141.568 77.8522L143.923 77.0885C144.883 76.7776 145.636 76.0249 145.947 75.0649L146.71 72.7102L147.474 75.0649C147.786 76.0249 148.538 76.7776 149.498 77.0885Z" fill="white"/>
</svg>
